<svg viewBox="0 0 48 48"><path d="M24.2,5.25a2.4,2.4,0,0,1,1,2v9.6h1.2a2.4,2.4,0,1,1,0,4.8H19.2a2.4,2.4,0,1,1,0-4.8h1.2V10.53l-.44.15a2.4,2.4,0,0,1-1.52-4.56L22,4.92a2.41,2.41,0,0,1,2.16.33ZM7.4,26.85a2.41,2.41,0,0,1,1,1.95v9.6H9.6a2.4,2.4,0,0,1,0,4.8H2.4a2.4,2.4,0,0,1,0-4.8H3.6V32.13l-.44.15a2.4,2.4,0,0,1-1.52-4.56l3.6-1.2a2.41,2.41,0,0,1,2.16.33Zm2.2-22a4.8,4.8,0,0,1,4.8,4.8v7.2a4.8,4.8,0,0,1-4.8,4.8H4.8A4.8,4.8,0,0,1,0,16.8V9.6A4.8,4.8,0,0,1,4.8,4.8Zm-4.8,12H9.6V9.6H4.8Zm9.6,14.4a4.8,4.8,0,0,1,4.8-4.8H24a4.8,4.8,0,0,1,4.8,4.8v7.2A4.8,4.8,0,0,1,24,43.2H19.2a4.8,4.8,0,0,1-4.8-4.8Zm9.6,0H19.2v7.2H24ZM39.6,19.13a6,6,0,0,1,6,6v3.6A2.45,2.45,0,0,1,48,31.2v9.6a2.39,2.39,0,0,1-2.4,2.4h-12a2.39,2.39,0,0,1-2.4-2.4V31.2a2.45,2.45,0,0,1,2.4-2.47v-3.6A6,6,0,0,1,39.6,19.13Zm0,3.6a2.44,2.44,0,0,0-2.4,2.4v3.6H42v-3.6A2.44,2.44,0,0,0,39.6,22.73Z"/></svg>