<svg viewBox="0 0 48 48"><path d="M24.05,23.06a2.16,2.16,0,0,0-2.16,2.17,68.57,68.57,0,0,1-2.6,19.83A2.22,2.22,0,0,0,21.37,48a2.24,2.24,0,0,0,2.17-1.64,76.46,76.46,0,0,0,2.76-21A2.26,2.26,0,0,0,24.05,23.06ZM24,15.4a9.3,9.3,0,0,0-9.65,9.48,61,61,0,0,1-1.26,13.36,2.25,2.25,0,0,0,4.4.92A66.07,66.07,0,0,0,18.81,24.9a4.85,4.85,0,0,1,5.09-5,5.41,5.41,0,0,1,5.39,5.21,75.34,75.34,0,0,1-1,13.45,2.31,2.31,0,0,0,1.86,2.59,2.26,2.26,0,0,0,2.57-1.86,78.09,78.09,0,0,0,1.05-14.17A10,10,0,0,0,24,15.4ZM13.61,13.55a2.25,2.25,0,0,0-3.17.32,16.38,16.38,0,0,0-3.62,10.5A54.35,54.35,0,0,1,6,34.88a2.28,2.28,0,0,0,1.8,2.61,2.14,2.14,0,0,0,2.54-1.82,59.32,59.32,0,0,0,.91-11.38,12.49,12.49,0,0,1,2.62-7.57A2.17,2.17,0,0,0,13.61,13.55ZM23.77,7.7a16.41,16.41,0,0,0-4.2.47,2.18,2.18,0,0,0-1.68,2.71,2.18,2.18,0,0,0,2.63,1.66,15.36,15.36,0,0,1,3.28-.34,13.13,13.13,0,0,1,13,12.62,86.91,86.91,0,0,1-.53,10.65,2.24,2.24,0,0,0,4.46.5,86,86,0,0,0,.56-11.22A17.69,17.69,0,0,0,23.77,7.7ZM47.45,19.09a2.25,2.25,0,1,0-4.39,1,23.48,23.48,0,0,1,.44,5.78,2.25,2.25,0,0,0,2.23,2.27A2.29,2.29,0,0,0,48,25.86,28.35,28.35,0,0,0,47.45,19.09Zm-3.84-8.5A24.87,24.87,0,0,0,23.65,0,23.39,23.39,0,0,0,6.59,6.84,22.43,22.43,0,0,0,0,23.12v2a2.38,2.38,0,0,0,2.26,2.32h.07a2.18,2.18,0,0,0,2.16-2.19V23.06A18.36,18.36,0,0,1,9.85,10,19,19,0,0,1,23.67,4.5,20.19,20.19,0,0,1,40,13.16a2.21,2.21,0,1,0,3.59-2.57Z"/></svg>