<svg viewBox="0 0 48 48"><path d="M38.3,22.9a2.39,2.39,0,0,0-3.39,0l-2.5,2.51L29.9,22.9a2.4,2.4,0,0,0-3.39,3.4L29,28.8l-2.5,2.51A2.4,2.4,0,0,0,29.9,34.7l2.51-2.5,2.5,2.5a2.4,2.4,0,1,0,3.39-3.39L35.8,28.8l2.5-2.5A2.4,2.4,0,0,0,38.3,22.9ZM14.4,4.79H12A7.21,7.21,0,0,0,4.8,12v7.2H2.4a2.4,2.4,0,0,0,0,4.8H4.8v9.6a2.35,2.35,0,0,1-2.4,2.33,2.4,2.4,0,0,0,0,4.8,7.21,7.21,0,0,0,7.2-7.2v-9.6H12a2.4,2.4,0,0,0,0-4.8H9.6v-7.2A2.4,2.4,0,0,1,12,9.59h2.4a2.41,2.41,0,0,0,0-4.81Zm9.69,10a2.44,2.44,0,0,0-3.38.74,24.24,24.24,0,0,0,0,26.58,2.41,2.41,0,0,0,2,1.11,2.39,2.39,0,0,0,2-3.68,19.35,19.35,0,0,1,0-21.44A2.32,2.32,0,0,0,24.09,14.77ZM44,15.51A2.4,2.4,0,1,0,40,18.09a19.3,19.3,0,0,1,0,21.43,2.4,2.4,0,0,0,.74,3.31,2.33,2.33,0,0,0,1.28.38,2.39,2.39,0,0,0,2-1.12A24.24,24.24,0,0,0,44,15.51Z"/></svg>