<svg viewBox="0 0 48 48"><path d="M33,24a57.72,57.72,0,0,1-.31,6H15.31a57.24,57.24,0,0,1-.39-6,57.24,57.24,0,0,1,.39-6H32.69A57.72,57.72,0,0,1,33,24Zm14.24-6a24.06,24.06,0,0,1,0,12H35.7a59.52,59.52,0,0,0,.3-6,58.36,58.36,0,0,0-.3-6Zm-1-3H35.32C34.38,9,32.52,4,30.13.79A24.1,24.1,0,0,1,46.26,15Zm-14,0H15.72a37.47,37.47,0,0,1,2.53-8.87,15.48,15.48,0,0,1,3.14-4.84A3.9,3.9,0,0,1,24,0a3.9,3.9,0,0,1,2.61,1.29,15.48,15.48,0,0,1,3.14,4.84A38,38,0,0,1,32.28,15ZM1.74,15A24.1,24.1,0,0,1,17.87.79C15.48,4,13.62,9,12.68,15ZM12.3,18a58,58,0,0,0-.38,6,59.46,59.46,0,0,0,.38,6H.76a24.06,24.06,0,0,1,0-12Zm5.95,23.87A37.47,37.47,0,0,1,15.72,33H32.28a38,38,0,0,1-2.53,8.87,15.48,15.48,0,0,1-3.14,4.84A3.9,3.9,0,0,1,23.92,48a3.91,3.91,0,0,1-2.53-1.29,15.48,15.48,0,0,1-3.14-4.84Zm-.38,5.34A24.07,24.07,0,0,1,1.74,33H12.68c.94,6,2.8,11,5.19,14.21Zm12.26,0C32.52,44,34.38,39,35.32,33H46.26A24.07,24.07,0,0,1,30.13,47.21Z"/></svg>