<svg viewBox="0 0 48 48"><path d="M12.29,14.08A11.51,11.51,0,0,1,29.76,29l-.09.13a2.54,2.54,0,0,1-4.14-3l.09-.13a6.4,6.4,0,0,0-9.74-8.25L7,26.66a6.4,6.4,0,0,0,8.24,9.74l.13-.16a2.61,2.61,0,0,1,3.54.66,2.54,2.54,0,0,1-.58,3.55l-.13.09A11.49,11.49,0,0,1,3.37,23.07ZM35.72,33.85a11.48,11.48,0,0,1-17.46-14.8l.08-.13a2.54,2.54,0,0,1,4.14,3l-.09.13a6.4,6.4,0,0,0,9.74,8.25L41,21.34A6.4,6.4,0,0,0,32.8,11.6l-.13.09a2.6,2.6,0,0,1-3.54-.59,2.54,2.54,0,0,1,.59-3.55l.12-.09a11.49,11.49,0,0,1,14.8,17.47Z"/></svg>