<svg viewBox="0 0 48 48"><path d="M1.44,5A2.34,2.34,0,0,1,3.72,2.67h3A2.23,2.23,0,0,1,9.06,5V16.38h1.52a2.29,2.29,0,1,1,0,4.57H3a2.29,2.29,0,0,1,0-4.57H4.49V7.24H3.72A2.34,2.34,0,0,1,1.44,5ZM7.5,32.11a1.48,1.48,0,0,0-2.3.12l-1,1.47A2.28,2.28,0,1,1,.43,31.06l1.05-1.49a6,6,0,1,1,9.35,7.6L7.5,40.76h3.17a2.29,2.29,0,0,1,0,4.57H2.29A2.28,2.28,0,0,1,.61,41.49l6.86-7.43a1.48,1.48,0,0,0,0-2ZM45,5.71a3.05,3.05,0,0,1,0,6.1H20.57a3.05,3.05,0,0,1,0-6.1ZM45,21a3.05,3.05,0,0,1,0,6.1H20.57a3.05,3.05,0,0,1,0-6.1Zm0,15.24a3,3,0,1,1,0,6.09H20.57a3,3,0,1,1,0-6.09Z"/></svg>