<svg viewBox="0 0 48 48"><path d="M34.79,16.66h0l0,0a.11.11,0,0,1,0-.11l1-5.92,4.55,4.54-4.73,2h-.06s0,0,0,0A2.36,2.36,0,0,0,34.79,16.66Zm6.59-.36,4.85,4.85c1,1,1.52,1.51,1.7,2.09a2.68,2.68,0,0,1,.07.27L36.39,18.6h0s-.1,0-.1-.09.06-.07.1-.09h0Zm6.42,8.76a9.36,9.36,0,0,1-1.56,1.79l-5.48,5.47-7.08-1.47h0c-.06,0-.13,0-.13-.08a2.14,2.14,0,0,0-.82-1.49s0-.08,0-.12v0L34,21v0c0-.07,0-.14.07-.14A2.14,2.14,0,0,0,35.54,20s0,0,0,0a.2.2,0,0,1,.13,0L47.8,25.06Zm-8.3,8.52-9,9L32,33.11h0s0,0,0,0,0,0,.07-.05h0a2.4,2.4,0,0,0,.87-.65s.06-.07.11-.07h0l6.34,1.3ZM28.59,44.48l-1,1L16.35,29.29v0a.13.13,0,0,1,0-.07l0-.06h0a.86.86,0,0,0,.1-.16l0,0h0a.16.16,0,0,1,.06-.08.14.14,0,0,1,.09,0l12.44,2.56.09,0s0,0,0,.06A2.19,2.19,0,0,0,30.46,33s0,.05,0,.1a.08.08,0,0,0,0,.05C30.29,34.08,29,42.27,28.59,44.48Zm-2.12,2.11a4.63,4.63,0,0,1-1.69,1.29,2.44,2.44,0,0,1-1.51,0c-.59-.18-1.09-.69-2.1-1.69L9.9,34.93l2.94-4.56s0-.05.05-.06a.17.17,0,0,1,.12,0,3,3,0,0,0,2.05-.11s.07,0,.09,0a.08.08,0,0,1,0,0L26.47,46.6ZM8.81,33.84,6.23,31.26l5.1-2.18h0c.05,0,.07,0,.09.08l.17.23v0s0,0,0,.06L8.81,33.84ZM5.08,30.12,1.81,26.85c-.55-.56-1-1-1.24-1.31l10,2.06h0c.07,0,.13,0,.13.08s-.07.09-.13.12h0ZM0,23.86a2.69,2.69,0,0,1,.11-.62,6.34,6.34,0,0,1,1.7-2.09L6,17l5.8,8.37s.07.09,0,.13a3.58,3.58,0,0,0-.5.66.16.16,0,0,1-.06.08h0L0,23.86Zm7.12-8,5.63-5.62L16.92,12l2.87,1.21s.07,0,.08.07,0,.05,0,.07a2.51,2.51,0,0,0,.66,2.29s0,.09,0,.14l0,0-5.71,8.84a.34.34,0,0,1-.06.06.14.14,0,0,1-.11,0,2.59,2.59,0,0,0-.68-.09,3.84,3.84,0,0,0-.65.08h0s0,0-.07,0l-.06-.06Zm6.76-6.76,7.29-7.28c1-1,1.51-1.51,2.1-1.69a2.44,2.44,0,0,1,1.51,0c.58.18,1.09.69,2.1,1.69l1.58,1.58-5.19,8-.05.06a.14.14,0,0,1-.11,0,2.65,2.65,0,0,0-2.41.46s-.08,0-.12,0C19.9,11.63,14.64,9.41,13.88,9.09Zm15.68-4.6,4.78,4.78L33.19,16.4v0s0,0,0,0,0,0-.06,0a2.22,2.22,0,0,0-.69.34l0,0a.06.06,0,0,1,0,0H32.3L25,13.8h0s-.1,0-.1-.09a2.59,2.59,0,0,0-.39-1.14c0-.06-.07-.12,0-.18ZM24.63,15.26l6.83,2.89a.2.2,0,0,1,.1.08.09.09,0,0,1,0,.07,1.66,1.66,0,0,0,0,.33v.19c0,.05-.05.07-.09.09h0L16.19,25.39a.07.07,0,0,1-.06,0s0-.09,0-.14l0,0,5.61-8.69h0c0-.05.07-.11.13-.11H22c.13,0,.24,0,.36,0a2.51,2.51,0,0,0,2.11-1.12.12.12,0,0,1,.05-.05S24.59,15.25,24.63,15.26ZM16.8,26.76l15.39-6.55a.06.06,0,0,1,0,0l.23.19,0,0s.07,0,.07.07v0l-1.32,8.09v0c0,.07,0,.14-.07.14a2.18,2.18,0,0,0-1.73,1.06h0l-.06.07h-.09L17,27.41S16.81,26.76,16.8,26.76Z"/></svg>