<svg viewBox="0 0 48 48"><path d="M37.5,7.16c-2.35-2.35-6.16-2.35-8.51,0L11.26,24.88c-4.06,4.06-4.06,10.62,0,14.68,4.06,4.06,10.62,4.06,14.68,0l14.64-14.64c1.05-1.05,2.76-1.05,3.81,0s1.05,2.76,0,3.81l-14.64,14.64c-6.16,6.16-16.14,6.16-22.31,0-6.16-6.16-6.16-16.14,0-22.31L25.17,3.34c4.46-4.46,11.68-4.46,16.14,0,4.46,4.46,4.46,11.68,0,16.14l-16.95,16.95c-2.75,2.75-7.22,2.75-9.98,0s-2.75-7.22,0-9.98l13.87-13.87c1.05-1.05,2.76-1.05,3.81,0s1.05,2.76,0,3.81l-13.87,13.87c-.65,.65-.65,1.7,0,2.35s1.7,.65,2.35,0L37.5,15.67c2.35-2.35,2.35-6.16,0-8.51h0Z"/></svg>