<svg viewBox="0 0 48 48"><path d="M46.44,3.33a5.29,5.29,0,0,1,0,7.5L43.6,13.68,34.32,4.4l2.85-2.85a5.31,5.31,0,0,1,7.5,0ZM16.33,22.4,32.18,6.54l9.28,9.28L25.6,31.67A5.18,5.18,0,0,1,23.53,33l-8.41,2.8a2.13,2.13,0,0,1-2.33-.63,2.11,2.11,0,0,1-.55-2.25L15,24.47a5.18,5.18,0,0,1,1.29-2.07ZM18.19,5.48a3.09,3.09,0,0,1,3,3,3,3,0,0,1-3,3H9.09a3.09,3.09,0,0,0-3,3V38.91a3,3,0,0,0,3,3H33.34a3,3,0,0,0,3-3V29.73a3,3,0,0,1,6.07,0v9.18A9.1,9.1,0,0,1,33.34,48H9.09A9.09,9.09,0,0,1,0,38.91V14.57A9.09,9.09,0,0,1,9.09,5.48Z"/></svg>