<svg viewBox="0 0 48 48"><path d="M48,27c0,3.32-2,6-4.5,6-3,0-3-3-5.22-3A2.28,2.28,0,0,0,36,32.26V45a3,3,0,0,1-3,3H26.28A2.28,2.28,0,0,1,24,45.71c0-2.3,3-2.18,3-5.22C27,38,24.31,36,21,36s-6,2-6,4.51c0,3,3,3,3,5.22A2.28,2.28,0,0,1,15.71,48H3a3,3,0,0,1-3-3V32.26A2.28,2.28,0,0,1,2.28,30c2.22,0,2.18,3,5.22,3C10,33,12,30.28,12,27s-2-6.09-4.5-6.09c-3,0-3,3-5.22,3A2.21,2.21,0,0,1,0,21.67V14.94A2.93,2.93,0,0,1,3,12H15.71A2.47,2.47,0,0,0,18,9.65c0-2.23-3-2.18-3-5.23C15,1.93,17.69,0,21,0s6,2,6,4.42c0,3.05-3,3-3,5.23a2.29,2.29,0,0,0,2.28,2.29H33a3,3,0,0,1,3,2.92v6.72a2.28,2.28,0,0,0,2.28,2.29c2.22,0,2.18-3,5.22-3C46,20.87,48,23.65,48,27Z"/></svg>