<svg viewBox="0 0 48 48"><path d="M7.31.21a2.22,2.22,0,0,1,2.4.34L13.5,3.79,17.29.55a2.22,2.22,0,0,1,2.92,0L24,3.79,27.79.55a2.22,2.22,0,0,1,2.92,0L34.5,3.79,38.29.55a2.22,2.22,0,0,1,2.4-.34,2.27,2.27,0,0,1,1.31,2V45.76a2.24,2.24,0,0,1-3.71,1.7L34.5,44.22l-3.79,3.24a2.24,2.24,0,0,1-2.92,0L24,44.22l-3.79,3.24a2.24,2.24,0,0,1-2.92,0L13.5,44.22,9.71,47.46A2.24,2.24,0,0,1,6,45.76V2.25a2.25,2.25,0,0,1,1.31-2ZM15,13.51a1.5,1.5,0,1,0,0,3H33a1.5,1.5,0,0,0,0-3Zm0,21H33a1.5,1.5,0,1,0,0-3H15a1.5,1.5,0,1,0,0,3Zm0-12a1.5,1.5,0,0,0,0,3H33a1.5,1.5,0,0,0,0-3Z"/></svg>