<svg viewBox="0 0 48 48"><path d="M.7,22.3A2.4,2.4,0,0,0,0,24v9.6A2.39,2.39,0,0,0,2.4,36H4.8V21.6H2.4A2.4,2.4,0,0,0,.7,22.3ZM34.8,12H26.4V7.2a2.4,2.4,0,1,0-4.8,0V12H13.2a6,6,0,0,0-6,6V38.4A4.8,4.8,0,0,0,12,43.2H36a4.8,4.8,0,0,0,4.8-4.8V18A6,6,0,0,0,34.8,12ZM19.2,36H14.4V33.6h4.8Zm-2.4-9a3,3,0,1,1,3-3A3,3,0,0,1,16.8,27Zm9.6,9H21.6V33.6h4.8Zm7.2,0H28.8V33.6h4.8Zm-2.4-9a3,3,0,1,1,3-3A3,3,0,0,1,31.2,27Zm16.09-4.7a2.38,2.38,0,0,0-1.69-.7H43.2V36h2.4A2.39,2.39,0,0,0,48,33.6V24A2.41,2.41,0,0,0,47.29,22.3Z"/></svg>