<svg viewBox="0 0 48 48"><path d="M11.27,14.46a2.23,2.23,0,0,0,1.59.66,2.25,2.25,0,0,0,1.6-3.84L10.21,7A2.25,2.25,0,0,0,7,10.21ZM24,10.5a2.25,2.25,0,0,0,2.25-2.25v-6a2.25,2.25,0,0,0-4.5,0v6A2.25,2.25,0,0,0,24,10.5ZM10.5,24a2.25,2.25,0,0,0-2.25-2.25h-6a2.25,2.25,0,0,0,0,4.5h6A2.24,2.24,0,0,0,10.5,24Zm24.64-8.89a2.25,2.25,0,0,0,1.59-.66L41,10.21A2.25,2.25,0,0,0,37.79,7l-4.24,4.24a2.25,2.25,0,0,0,0,3.18A2.19,2.19,0,0,0,35.14,15.11ZM24,37.5a2.25,2.25,0,0,0-2.25,2.25v6a2.25,2.25,0,0,0,4.5,0v-6A2.25,2.25,0,0,0,24,37.5Zm-12.73-4L7,37.79A2.25,2.25,0,1,0,10.21,41l4.24-4.24a2.25,2.25,0,0,0-3.18-3.19ZM45.75,21.75h-6a2.25,2.25,0,0,0,0,4.5h6a2.25,2.25,0,0,0,0-4.5Zm-9,11.79a2.25,2.25,0,0,0-3.18,3.18L37.79,41A2.25,2.25,0,0,0,41,37.79ZM24,13.5A10.5,10.5,0,1,0,34.5,24,10.5,10.5,0,0,0,24,13.5Z"/></svg>