<svg xmlns="http://www.w3.org/2000/svg" viewBox="0 0 48 48"><rect y="37.55" width="48" height="0.02" fill="#ebebeb"/><rect x="40.01" y="39.09" width="3.18" height="0.02" fill="#ebebeb"/><rect x="30.96" y="39.35" width="0.83" height="0.02" fill="#ebebeb"/><rect x="38.07" y="38.2" width="1.84" height="0.02" fill="#ebebeb"/><rect x="5.04" y="38.36" width="4.15" height="0.02" fill="#ebebeb"/><rect x="10.04" y="38.36" width="0.61" height="0.02" fill="#ebebeb"/><rect x="12.62" y="38.77" width="8.99" height="0.02" fill="#ebebeb"/><path d="M22.75,33.27H4.22a.55.55,0,0,1-.55-.55V6.66a.54.54,0,0,1,.55-.54H22.75a.55.55,0,0,1,.55.55h0V32.72A.55.55,0,0,1,22.75,33.27ZM4.22,6.14a.52.52,0,0,0-.53.52V32.72a.52.52,0,0,0,.53.52H22.75a.52.52,0,0,0,.53-.52V6.66a.52.52,0,0,0-.53-.52Z" fill="#ebebeb"/><path d="M43.52,33.27H25a.55.55,0,0,1-.55-.55V6.66A.55.55,0,0,1,25,6.12H43.52a.54.54,0,0,1,.54.54V32.72A.55.55,0,0,1,43.52,33.27ZM25,6.14a.52.52,0,0,0-.52.52V32.72a.52.52,0,0,0,.52.52H43.52a.52.52,0,0,0,.52-.52V6.66a.52.52,0,0,0-.52-.52Z" fill="#ebebeb"/><polygon points="35.53 29.26 35.53 31.14 36.32 31.72 32.62 31.72 33.8 31.28 33.8 29.39 35.53 29.26" fill="#e0e0e0"/><path d="M25,31.66v5.92H43.19V31.66Zm.3.39H39.9V34H25.28Z" fill="#e0e0e0"/><path d="M25,31.66v5.92H40.3V31.66Zm.3.39H39.9V34H25.28Z" fill="#ebebeb"/><rect x="25.28" y="32.05" width="2.66" height="1.93" fill="#e0e0e0"/><rect x="36.04" y="33.01" width="3.86" height="0.97" fill="#e0e0e0"/><rect x="33.31" y="33.4" width="2.48" height="0.57" fill="#e0e0e0"/><rect x="29.81" y="32.81" width="2.93" height="1.17" fill="#e0e0e0"/><polygon points="36.99 34.4 37.06 34.63 38.01 34.63 38.08 34.4 39.9 34.4 39.9 36.96 35.18 36.96 35.18 34.4 36.99 34.4" fill="#e0e0e0"/><polygon points="32.05 34.4 32.12 34.63 33.07 34.63 33.14 34.4 34.95 34.4 34.95 36.96 30.23 36.96 30.23 34.4 32.05 34.4" fill="#e0e0e0"/><polygon points="27.11 34.4 27.18 34.63 28.13 34.63 28.2 34.4 30.01 34.4 30.01 36.96 25.29 36.96 25.29 34.4 27.11 34.4" fill="#e0e0e0"/><rect x="27.38" y="22.39" width="13.22" height="7.99" rx="0.34" fill="#e0e0e0"/><rect x="27.07" y="22.39" width="13.22" height="7.99" rx="0.34" fill="#e6e6e6"/><rect x="27.46" y="22.78" width="12.45" height="7.21" fill="#f0f0f0"/><rect x="31.1" y="8.86" width="10.81" height="11.96" fill="#e9e9e9"/><rect x="31.58" y="9.33" width="9.89" height="11.04" fill="#f4f4f4"/><polygon points="34.37 9.33 31.58 19.8 31.58 14.13 32.85 9.33 34.37 9.33" fill="#fff"/><polygon points="35.62 9.33 32.67 20.37 32.12 20.37 35.06 9.33 35.62 9.33" fill="#fff"/><polygon points="41.46 12.34 41.46 18.01 40.84 20.37 39.32 20.37 41.46 12.34" fill="#fff"/><rect x="36.31" y="8.86" width="0.38" height="11.96" fill="#e9e9e9"/><rect x="31.29" y="11.28" width="10.42" height="0.38" fill="#e9e9e9"/><rect x="6.85" y="19.15" width="4.21" height="2.98" fill="#e0e0e0"/><rect x="7.05" y="19.34" width="3.82" height="2.59" fill="#ebebeb"/><rect x="8.31" y="15.41" width="4.21" height="2.98" fill="#e0e0e0"/><rect x="8.51" y="15.6" width="3.82" height="2.59" fill="#ebebeb"/><rect x="11.86" y="19.15" width="2.68" height="3.79" fill="#e0e0e0"/><rect x="12.04" y="19.33" width="2.33" height="3.44" fill="#ebebeb"/><rect x="13.09" y="14.17" width="2.98" height="4.21" fill="#e0e0e0"/><rect x="13.28" y="14.37" width="2.59" height="3.82" fill="#ebebeb"/><rect x="15.45" y="19.15" width="3.3" height="2.33" fill="#e0e0e0"/><rect x="15.61" y="19.3" width="2.99" height="2.03" fill="#ebebeb"/><path d="M6.14,25.85H16.55a.85.85,0,0,1,.85.84L18.55,34H6.44L5.29,26.69a.85.85,0,0,1,.85-.84Z" fill="#ebebeb"/><path d="M18.52,28.68v0h4v8.93h-5V29.72A1,1,0,0,1,18.52,28.68Z" fill="#e0e0e0"/><path d="M22.58,28.68h0a1,1,0,0,1,1,1v7.86H21.55V29.72A1,1,0,0,1,22.58,28.68Z" fill="#f0f0f0"/><path d="M6.91,28.68l0,0h4v8.93h-5V29.72A1,1,0,0,1,6.91,28.68Z" fill="#e0e0e0"/><rect x="12" y="31.29" width="8.87" height="6.29" fill="#e0e0e0"/><path d="M20.3,32.82h-10V30.64h10a1.09,1.09,0,0,1,1.09,1.09h0A1.09,1.09,0,0,1,20.3,32.82Z" fill="#f5f5f5"/><path d="M11,28.68h0a1,1,0,0,1,1,1v7.86H9.93V29.72A1,1,0,0,1,11,28.68Z" fill="#f0f0f0"/><path d="M8.14,34.14H6.44L5.29,26.69a.85.85,0,0,1,.85-.84h0a.85.85,0,0,1,.85.84Z" fill="#e0e0e0"/><path d="M5.7,8.08v2.84a.25.25,0,0,0,.27.26h9.6s1.1-.51,1-1.24c-.07-.57-.13-1-.19-1.4a.87.87,0,0,0-.87-.75H6a.28.28,0,0,0-.28.29Z" fill="#f5f5f5"/><path d="M5.7,8.08v2.84a.25.25,0,0,0,.27.26h.86s1.11-.51,1-1.24c-.06-.57-.13-1-.18-1.4a.89.89,0,0,0-.88-.75H6a.29.29,0,0,0-.29.29Z" fill="#e6e6e6"/><path d="M16.38,10.18H8a2,2,0,0,1-.74.86h8.18S16.3,10.64,16.38,10.18Z" fill="#e0e0e0"/><polygon points="15.8 10.75 7.72 10.75 7.84 11.04 15.8 11.04 15.8 10.75" fill="#ebebeb"/><polygon points="16.09 10.39 8 10.39 8.13 10.68 16.09 10.68 16.09 10.39" fill="#ebebeb"/><rect x="8.29" y="9.96" width="0.2" height="0.08" fill="#e0e0e0"/><rect x="8.58" y="9.96" width="0.2" height="0.08" fill="#e0e0e0"/><ellipse cx="24" cy="40.8" rx="18.61" ry="1.09" fill="#f5f5f5"/><path d="M8.71,33.87c0,.14-.37.23-.67.29a1.32,1.32,0,0,0,.43.76c.29-.17.72-.39.79-.34s-.35.34-.62.5a5.5,5.5,0,0,0,.61.47c.14-.13.29-.23.39-.17s.07.25,0,.42c.32.19.56.3.56.3a5.74,5.74,0,0,0,.22-.91.93.93,0,0,0,0-.1c-.05-.12,0-.17.09-.19a3.64,3.64,0,0,0,0-.66c-.36-.07-.81-.21-.64-.43a.46.46,0,0,1,.47-.12.47.47,0,0,0-.09-.12c-.66-.73-1.12,0-1.12,0a.62.62,0,0,0-1,.27C8.27,33.78,8.68,33.7,8.71,33.87Z" fill="#31c9c9"/><path d="M8.71,33.87c0,.14-.37.23-.67.29a1.32,1.32,0,0,0,.43.76c.29-.17.72-.39.79-.34s-.35.34-.62.5a5.5,5.5,0,0,0,.61.47c.14-.13.29-.23.39-.17s.07.25,0,.42c.32.19.56.3.56.3a5.74,5.74,0,0,0,.22-.91.93.93,0,0,0,0-.1c-.05-.12,0-.17.09-.19a3.64,3.64,0,0,0,0-.66c-.36-.07-.81-.21-.64-.43a.46.46,0,0,1,.47-.12.47.47,0,0,0-.09-.12c-.66-.73-1.12,0-1.12,0a.62.62,0,0,0-1,.27C8.27,33.78,8.68,33.7,8.71,33.87Z" fill="#fff" opacity="0.3"/><path d="M9.54,39.25h-.1c0-.05.39-5-.71-5.41a.35.35,0,0,0-.33,0c-.4.2-.59,1.06-.59,1.07l-.09,0s.2-.91.63-1.14a.48.48,0,0,1,.42,0C9.93,34.23,9.55,39.05,9.54,39.25Z" fill="#31c9c9"/><path d="M9.67,39.14c0-.22-.46-5.4.37-6a.53.53,0,0,1,.54-.08c.39.2.45,1,.45,1.08h-.1s0-.83-.4-1a.43.43,0,0,0-.43.08c-.79.52-.33,5.81-.33,5.86Z" fill="#31c9c9"/><path d="M9.8,39.56c0-.17-.14-4.14.62-4.48a.51.51,0,0,1,.45,0c.53.23.85,1.2.87,1.24l-.09,0s-.33-1-.81-1.19a.5.5,0,0,0-.38,0c-.58.27-.6,3.27-.56,4.39Z" fill="#31c9c9"/><path d="M9.61,39.38h-.1c.14-1.18.39-4.33,0-4.71a.16.16,0,0,0-.17,0c-.29.12-.45,1.13-.5,1.52H8.72c0-.15.17-1.45.55-1.6a.26.26,0,0,1,.27.07C10.09,35.08,9.63,39.2,9.61,39.38Z" fill="#31c9c9"/><polygon points="8 37.14 11.45 37.14 11.16 41 8.29 41 8 37.14" fill="#263238"/><polygon points="9.05 37.14 9.15 41 11.16 41 11.45 37.14 9.05 37.14" fill="#fff" opacity="0.2"/><path d="M8.47,35.72c0,.1-.3,0-.51,0a.91.91,0,0,0,0,.61c.24,0,.57,0,.6.07s-.33.09-.55.1a3.06,3.06,0,0,0,.22.49c.12,0,.25,0,.29,0s0,.18-.13.26c.13.23.24.39.24.39a5.23,5.23,0,0,0,.45-.49v-.08c0-.1.06-.11.12-.09a3.18,3.18,0,0,0,.23-.4c-.2-.18-.43-.42-.25-.49a.31.31,0,0,1,.33.09.34.34,0,0,0,0-.1c-.16-.68-.7-.39-.7-.39a.42.42,0,0,0-.73-.19C8.23,35.51,8.52,35.61,8.47,35.72Z" fill="#31c9c9"/><path d="M8.47,35.72c0,.1-.3,0-.51,0a.91.91,0,0,0,0,.61c.24,0,.57,0,.6.07s-.33.09-.55.1a3.06,3.06,0,0,0,.22.49c.12,0,.25,0,.29,0s0,.18-.13.26c.13.23.24.39.24.39a5.23,5.23,0,0,0,.45-.49v-.08c0-.1.06-.11.12-.09a3.18,3.18,0,0,0,.23-.4c-.2-.18-.43-.42-.25-.49a.31.31,0,0,1,.33.09.34.34,0,0,0,0-.1c-.16-.68-.7-.39-.7-.39a.42.42,0,0,0-.73-.19C8.23,35.51,8.52,35.61,8.47,35.72Z" fill="#fff" opacity="0.3"/><path d="M11,36.18a1.16,1.16,0,0,0-.31.07,1,1,0,0,1-.05-.23c0-.7.48-.4.74-.61a.63.63,0,0,1,.44-.14l-.06.12a.11.11,0,0,0,.06.14h0a.31.31,0,0,0,.19,0l0,0a1,1,0,0,1,.09.24.93.93,0,0,1,0,.29l-.12,0a.1.1,0,0,0-.05.14s0,0,0,0a.45.45,0,0,0,.14.1,1.35,1.35,0,0,1-.09.33h0l-.08,0,0,0a.09.09,0,0,0-.06.08.1.1,0,0,0,0,.1l0,0a.9.9,0,0,1-.27.28l-.3-.16.06-.08a.11.11,0,0,0,0-.11.14.14,0,0,0-.05-.1.23.23,0,0,0-.11,0,.17.17,0,0,0-.1.06l-.07.1a1.71,1.71,0,0,1-.36-.35h0a1.38,1.38,0,0,1,.2,0,.15.15,0,0,0,.09-.19.17.17,0,0,0-.13-.1Z" fill="#31c9c9"/><path d="M11,36.18a1.16,1.16,0,0,0-.31.07,1,1,0,0,1-.05-.23c0-.7.48-.4.74-.61a.63.63,0,0,1,.44-.14l-.06.12a.11.11,0,0,0,.06.14h0a.31.31,0,0,0,.19,0l0,0a1,1,0,0,1,.09.24.93.93,0,0,1,0,.29l-.12,0a.1.1,0,0,0-.05.14s0,0,0,0a.45.45,0,0,0,.14.1,1.35,1.35,0,0,1-.09.33h0l-.08,0,0,0a.09.09,0,0,0-.06.08.1.1,0,0,0,0,.1l0,0a.9.9,0,0,1-.27.28l-.3-.16.06-.08a.11.11,0,0,0,0-.11.14.14,0,0,0-.05-.1.23.23,0,0,0-.11,0,.17.17,0,0,0-.1.06l-.07.1a1.71,1.71,0,0,1-.36-.35h0a1.38,1.38,0,0,1,.2,0,.15.15,0,0,0,.09-.19.17.17,0,0,0-.13-.1Z" fill="#fff" opacity="0.5"/><path d="M11.23,33.78l.19-.1a.37.37,0,0,0-.07-.14c-.3-.38-.43,0-.66,0a.4.4,0,0,0-.28.12l.08,0a.07.07,0,0,1,0,.1v0a.26.26,0,0,1-.11.07h0a.43.43,0,0,0,.05.16.77.77,0,0,0,.1.18l.08,0a.07.07,0,0,1,.09,0v0l0,.12a.64.64,0,0,0,.19.13h0l.05,0h0a.11.11,0,0,1,.08,0,.1.1,0,0,1,0,.07.08.08,0,0,0,0,0,.57.57,0,0,0,.26,0l.09-.21-.07,0a.09.09,0,0,1-.06,0,.12.12,0,0,1,0-.08s0-.05,0-.06a.1.1,0,0,1,.07,0l.08,0a1.24,1.24,0,0,0,0-.33h0a.41.41,0,0,0-.11.07.11.11,0,0,1-.14,0,.1.1,0,0,1,0-.14Z" fill="#31c9c9"/><path d="M11.23,33.78l.19-.1a.37.37,0,0,0-.07-.14c-.3-.38-.43,0-.66,0a.4.4,0,0,0-.28.12l.08,0a.07.07,0,0,1,0,.1v0a.26.26,0,0,1-.11.07h0a.43.43,0,0,0,.05.16.77.77,0,0,0,.1.18l.08,0a.07.07,0,0,1,.09,0v0l0,.12a.64.64,0,0,0,.19.13h0l.05,0h0a.11.11,0,0,1,.08,0,.1.1,0,0,1,0,.07.08.08,0,0,0,0,0,.57.57,0,0,0,.26,0l.09-.21-.07,0a.09.09,0,0,1-.06,0,.12.12,0,0,1,0-.08s0-.05,0-.06a.1.1,0,0,1,.07,0l.08,0a1.24,1.24,0,0,0,0-.33h0a.41.41,0,0,0-.11.07.11.11,0,0,1-.14,0,.1.1,0,0,1,0-.14Z" fill="#fff" opacity="0.3"/><path d="M8.42,34.48c0,.14.37.23.68.29a1.38,1.38,0,0,1-.44.75c-.29-.16-.72-.38-.79-.33s.34.34.62.5a5.61,5.61,0,0,1-.62.47c-.13-.13-.29-.24-.38-.18s-.07.26,0,.43c-.33.19-.57.3-.57.3a7.21,7.21,0,0,1-.21-.92l0-.09c.06-.12,0-.17-.08-.19a3.64,3.64,0,0,1,0-.66c.37-.08.81-.22.65-.44a.47.47,0,0,0-.48-.11l.09-.13c.67-.73,1.13,0,1.13,0a.61.61,0,0,1,1,.27C8.86,34.39,8.45,34.3,8.42,34.48Z" fill="#31c9c9"/><path d="M8.42,34.48c0,.14.37.23.68.29a1.38,1.38,0,0,1-.44.75c-.29-.16-.72-.38-.79-.33s.34.34.62.5a5.61,5.61,0,0,1-.62.47c-.13-.13-.29-.24-.38-.18s-.07.26,0,.43c-.33.19-.57.3-.57.3a7.21,7.21,0,0,1-.21-.92l0-.09c.06-.12,0-.17-.08-.19a3.64,3.64,0,0,1,0-.66c.37-.08.81-.22.65-.44a.47.47,0,0,0-.48-.11l.09-.13c.67-.73,1.13,0,1.13,0a.61.61,0,0,1,1,.27C8.86,34.39,8.45,34.3,8.42,34.48Z" fill="#fff" opacity="0.5"/><polygon points="37 41 38.84 28.79 38.84 41 39.34 41 39.34 28.71 41.17 41 41.7 41 39.4 25.62 39.34 25.63 39.34 25.13 38.84 25.13 38.84 25.62 38.77 25.62 36.46 41 37 41" fill="#31c9c9"/><polygon points="37 41 38.84 28.79 38.84 41 39.34 41 39.34 28.71 41.17 41 41.7 41 39.4 25.62 39.34 25.63 39.34 25.13 38.84 25.13 38.84 25.62 38.77 25.62 36.46 41 37 41" fill="#fff" opacity="0.3"/><polygon points="41.62 27.32 36.53 27.32 36.94 23.07 41.21 23.07 41.62 27.32" fill="#31c9c9"/><polygon points="41.62 27.32 36.53 27.32 36.94 23.07 41.21 23.07 41.62 27.32" fill="#fff" opacity="0.5"/><path d="M28.8,21.8H27.13a.13.13,0,0,1-.14-.13v-4a.12.12,0,0,0,.06-.15.11.11,0,0,0-.15,0,.12.12,0,0,0-.07.1.11.11,0,0,0,.07.1v4a.23.23,0,0,0,.23.23H28.8a.13.13,0,0,1,.13.13V24.3H29V22A.23.23,0,0,0,28.8,21.8Z" fill="#31c9c9"/><path d="M28.8,21.8H27.13a.13.13,0,0,1-.14-.13v-4a.12.12,0,0,0,.06-.15.11.11,0,0,0-.15,0,.12.12,0,0,0-.07.1.11.11,0,0,0,.07.1v4a.23.23,0,0,0,.23.23H28.8a.13.13,0,0,1,.13.13V24.3H29V22A.23.23,0,0,0,28.8,21.8Z" fill="#fff" opacity="0.4"/><rect x="26.9" y="24.21" width="4.16" height="4.37" rx="0.26" fill="#31c9c9"/><rect x="26.9" y="24.21" width="4.16" height="4.37" rx="0.26" fill="#fff" opacity="0.4"/><rect x="28.7" y="26.72" width="0.56" height="0.56" fill="#fff" opacity="0.2"/><rect x="29.31" y="24.89" width="0.56" height="0.56" fill="#fff" opacity="0.2"/><rect x="28.09" y="27.32" width="0.56" height="0.56" fill="#fff" opacity="0.2"/><rect x="29.31" y="25.5" width="0.56" height="0.56" fill="#fff" opacity="0.2"/><rect x="29.31" y="26.11" width="0.56" height="0.56" fill="#fff" opacity="0.2"/><rect x="28.7" y="25.5" width="0.56" height="0.56" fill="#fff" opacity="0.2"/><rect x="28.7" y="24.25" width="0.56" height="0.59" fill="#fff" opacity="0.2"/><rect x="28.09" y="26.72" width="0.56" height="0.56" fill="#fff" opacity="0.2"/><rect x="28.7" y="24.89" width="0.56" height="0.56" fill="#fff" opacity="0.2"/><rect x="28.7" y="27.32" width="0.56" height="0.56" fill="#fff" opacity="0.2"/><rect x="29.31" y="27.32" width="0.56" height="0.56" fill="#fff" opacity="0.2"/><rect x="28.7" y="26.11" width="0.56" height="0.56" fill="#fff" opacity="0.2"/><rect x="29.31" y="24.25" width="0.56" height="0.59" fill="#fff" opacity="0.2"/><rect x="26.95" y="26.72" width="0.49" height="0.56" fill="#fff" opacity="0.2"/><rect x="26.95" y="24.89" width="0.49" height="0.56" fill="#fff" opacity="0.2"/><rect x="26.95" y="26.11" width="0.49" height="0.56" fill="#fff" opacity="0.2"/><rect x="26.95" y="25.5" width="0.49" height="0.56" fill="#fff" opacity="0.2"/><rect x="29.31" y="26.72" width="0.56" height="0.56" fill="#fff" opacity="0.2"/><path d="M30.52,24.84H31v-.38a.21.21,0,0,0-.21-.21h-.28Z" fill="#fff" opacity="0.2"/><rect x="29.91" y="24.89" width="0.56" height="0.56" fill="#fff" opacity="0.2"/><rect x="26.95" y="27.32" width="0.49" height="0.56" fill="#fff" opacity="0.2"/><rect x="29.91" y="25.5" width="0.56" height="0.56" fill="#fff" opacity="0.2"/><rect x="29.91" y="26.11" width="0.56" height="0.56" fill="#fff" opacity="0.2"/><rect x="29.91" y="26.72" width="0.56" height="0.56" fill="#fff" opacity="0.2"/><rect x="29.91" y="27.32" width="0.56" height="0.56" fill="#fff" opacity="0.2"/><rect x="30.52" y="27.32" width="0.49" height="0.56" fill="#fff" opacity="0.2"/><rect x="29.91" y="24.25" width="0.56" height="0.59" fill="#fff" opacity="0.2"/><rect x="28.7" y="27.93" width="0.56" height="0.59" fill="#fff" opacity="0.2"/><rect x="29.31" y="27.93" width="0.56" height="0.59" fill="#fff" opacity="0.2"/><rect x="30.52" y="26.11" width="0.49" height="0.56" fill="#fff" opacity="0.2"/><rect x="29.91" y="27.93" width="0.56" height="0.59" fill="#fff" opacity="0.2"/><rect x="30.52" y="26.72" width="0.49" height="0.56" fill="#fff" opacity="0.2"/><path d="M27.43,27.93H27v.39a.21.21,0,0,0,.21.21h.27Z" fill="#fff" opacity="0.2"/><path d="M30.52,27.93v.59h.28a.21.21,0,0,0,.21-.21v-.38Z" fill="#fff" opacity="0.2"/><path d="M27.43,24.84v-.59h-.27a.21.21,0,0,0-.21.21h0v.39Z" fill="#fff" opacity="0.2"/><rect x="30.52" y="25.5" width="0.49" height="0.56" fill="#fff" opacity="0.2"/><rect x="30.52" y="24.89" width="0.49" height="0.56" fill="#fff" opacity="0.2"/><rect x="27.48" y="26.11" width="0.56" height="0.56" fill="#fff" opacity="0.2"/><rect x="27.48" y="27.32" width="0.56" height="0.56" fill="#fff" opacity="0.2"/><rect x="28.09" y="24.25" width="0.56" height="0.59" fill="#fff" opacity="0.2"/><rect x="27.48" y="26.72" width="0.56" height="0.56" fill="#fff" opacity="0.2"/><rect x="28.09" y="25.5" width="0.56" height="0.56" fill="#fff" opacity="0.2"/><rect x="28.09" y="24.89" width="0.56" height="0.56" fill="#fff" opacity="0.2"/><rect x="28.09" y="27.93" width="0.56" height="0.59" fill="#fff" opacity="0.2"/><rect x="27.48" y="27.93" width="0.56" height="0.59" fill="#fff" opacity="0.2"/><rect x="27.48" y="24.25" width="0.56" height="0.59" fill="#fff" opacity="0.2"/><rect x="28.09" y="26.11" width="0.56" height="0.56" fill="#fff" opacity="0.2"/><rect x="27.48" y="25.5" width="0.56" height="0.56" fill="#fff" opacity="0.2"/><rect x="27.48" y="24.89" width="0.56" height="0.56" fill="#fff" opacity="0.2"/><path d="M30,25.74l0-.12a1,1,0,0,0-1.3-.63,1,1,0,0,0-.45.33.83.83,0,0,0-.14.22A1,1,0,0,0,28,26v.87a1,1,0,0,0,0,.25h0a1.34,1.34,0,0,0,.07.18h0a1.09,1.09,0,0,0,.08.15h0l.08.1.11.1.1.08a.72.72,0,0,0,.2.09h0l.09,0,.13,0h.28l.09,0h0a1,1,0,0,0,.33-.15l.11-.08a1.14,1.14,0,0,0,.21-.28.67.67,0,0,0,.07-.18,1.09,1.09,0,0,0,0-.26h0V26A1.49,1.49,0,0,0,30,25.74Zm-.23,1.59a.7.7,0,0,1-.2.22l-.08.06a1,1,0,0,1-.27.11h0l-.1,0h-.25l-.12,0-.1,0a.93.93,0,0,1-.19-.11l-.09-.07-.1-.11-.07-.12h0a1.08,1.08,0,0,1-.08-.19,1,1,0,0,1,0-.25V26a1,1,0,0,1,.19-.56,1,1,0,0,1,.31-.26A1,1,0,0,1,29,25a.93.93,0,0,1,.9.72h0a1.23,1.23,0,0,1,0,.2v.88a.5.5,0,0,1,0,.17h0a.52.52,0,0,1-.07.21A.35.35,0,0,1,29.74,27.33Z" fill="#fff"/><path d="M29.09,26.49a2.82,2.82,0,0,0-.16,1.25s0,.06,0,.1h-.09a.36.36,0,0,1,0-.1A2.87,2.87,0,0,1,29,26.46c.11-.35.16-.52,0-.59a.16.16,0,0,0-.15,0,2.8,2.8,0,0,0-.59,1.49.5.5,0,0,0,0,.12l-.08-.09h0a.77.77,0,0,1,0-.15h0a2.72,2.72,0,0,1,.61-1.44.25.25,0,0,1,.25,0C29.28,25.89,29.2,26.16,29.09,26.49Z" fill="#fff"/><path d="M28.93,26.47a3.37,3.37,0,0,0-.21,1.24.34.34,0,0,0,0,.1l-.1,0h0s0-.07,0-.11a3.52,3.52,0,0,1,.22-1.23,1.77,1.77,0,0,0,.08-.31,3.31,3.31,0,0,0-.49,1.44.49.49,0,0,0,0,.12.39.39,0,0,1-.1-.08v-.12a3.13,3.13,0,0,1,.52-1.43.09.09,0,0,1,.1,0C29.05,26.07,29,26.21,28.93,26.47Z" fill="#fff"/><path d="M29.19,27.72a.36.36,0,0,0,0,.09l-.1,0a.3.3,0,0,0,0-.1,1.38,1.38,0,0,1,0-.94c.28-.84.23-1,0-1.14a.34.34,0,0,0-.35,0c-.29.14-.54.65-.7,1.42l0,.18a.75.75,0,0,1-.07-.18h0a2.86,2.86,0,0,1,.07-.28,1.8,1.8,0,0,1,.69-1.23.44.44,0,0,1,.43,0c.29.15.3.45,0,1.25a1.25,1.25,0,0,0,0,.9Z" fill="#fff"/><path d="M29.66,27.57l-.1.09,0,0s0,0-.06,0a.5.5,0,0,1-.22-.31,1.53,1.53,0,0,1,.12-.71,1.78,1.78,0,0,0,.14-.77.55.55,0,0,0-.25-.36.72.72,0,0,0-.63.05,1.5,1.5,0,0,0-.56.73l-.1.25v-.27l.1-.21a1.26,1.26,0,0,1,.52-.59.82.82,0,0,1,.71,0,.57.57,0,0,1,.3.42,1.69,1.69,0,0,1-.14.82,1.31,1.31,0,0,0-.11.65.4.4,0,0,0,.21.28h0A.18.18,0,0,0,29.66,27.57Z" fill="#fff"/><path d="M30,27.12a.87.87,0,0,1-.07.17.33.33,0,0,1-.13,0H29.7a.26.26,0,0,1-.23-.19,1.79,1.79,0,0,1,.1-.69,3.47,3.47,0,0,0,.11-.56c0-.29-.08-.61-.65-.71a1,1,0,0,0-.94.53c-.05.07,0-.22,0-.18s.09-.07.14-.14a1.18,1.18,0,0,1,.86-.31.73.73,0,0,1,.72.81,2.29,2.29,0,0,1-.11.58,2,2,0,0,0-.1.64.17.17,0,0,0,.14.13l.11,0A.45.45,0,0,0,30,27.12Z" fill="#fff"/><path d="M30,26.6v.25h0a.33.33,0,0,1-.11.15h0a.21.21,0,0,1-.11,0h0a.13.13,0,0,1-.07-.05.49.49,0,0,1,0-.33,2,2,0,0,0,.16-.91h0v-.09a.05.05,0,0,1,.05,0h0a.56.56,0,0,1,0,.12A1.5,1.5,0,0,1,30,26c0,.13,0,.27-.05.41s0,0,0,.05a1.43,1.43,0,0,1-.08.22,1,1,0,0,0-.07.15s-.05.19,0,.16a.2.2,0,0,0,.08-.08l0,0s.05-.1.07-.16A.19.19,0,0,0,30,26.6Z" fill="#fff"/><path d="M22.92,10.32v2.44a.14.14,0,0,1-.14.14H20.29a.1.1,0,0,0-.09-.07.11.11,0,0,0-.12.11.11.11,0,0,0,.21.05h2.49a.23.23,0,0,0,.23-.23V10.32Z" fill="#31c9c9"/><path d="M22.92,10.32v2.44a.14.14,0,0,1-.14.14H20.29a.1.1,0,0,0-.09-.07.11.11,0,0,0-.12.11.11.11,0,0,0,.21.05h2.49a.23.23,0,0,0,.23-.23V10.32Z" fill="#fff" opacity="0.4"/><rect x="20.78" y="6.92" width="4.37" height="4.16" rx="0.26" fill="#31c9c9"/><rect x="20.78" y="6.92" width="4.37" height="4.16" rx="0.26" fill="#fff" opacity="0.4"/><rect x="22.08" y="8.72" width="0.56" height="0.56" fill="#fff" opacity="0.2"/><rect x="23.9" y="9.32" width="0.56" height="0.56" fill="#fff" opacity="0.2"/><rect x="21.47" y="8.11" width="0.56" height="0.56" fill="#fff" opacity="0.2"/><rect x="23.29" y="9.32" width="0.56" height="0.56" fill="#fff" opacity="0.2"/><rect x="22.68" y="9.32" width="0.56" height="0.56" fill="#fff" opacity="0.2"/><rect x="23.29" y="8.72" width="0.56" height="0.56" fill="#fff" opacity="0.2"/><rect x="24.51" y="8.72" width="0.59" height="0.56" fill="#fff" opacity="0.2"/><rect x="22.08" y="8.11" width="0.56" height="0.56" fill="#fff" opacity="0.2"/><rect x="23.9" y="8.72" width="0.56" height="0.56" fill="#fff" opacity="0.2"/><rect x="21.47" y="8.72" width="0.56" height="0.56" fill="#fff" opacity="0.2"/><rect x="21.47" y="9.32" width="0.56" height="0.56" fill="#fff" opacity="0.2"/><rect x="22.68" y="8.72" width="0.56" height="0.56" fill="#fff" opacity="0.2"/><rect x="24.51" y="9.32" width="0.59" height="0.56" fill="#fff" opacity="0.2"/><rect x="22.08" y="6.96" width="0.56" height="0.49" fill="#fff" opacity="0.2"/><rect x="23.9" y="6.96" width="0.56" height="0.49" fill="#fff" opacity="0.2"/><rect x="22.68" y="6.96" width="0.56" height="0.49" fill="#fff" opacity="0.2"/><rect x="23.29" y="6.96" width="0.56" height="0.49" fill="#fff" opacity="0.2"/><rect x="22.08" y="9.32" width="0.56" height="0.56" fill="#fff" opacity="0.2"/><path d="M24.51,10.54V11h.38a.21.21,0,0,0,.21-.21v-.28Z" fill="#fff" opacity="0.2"/><rect x="23.9" y="9.93" width="0.56" height="0.56" fill="#fff" opacity="0.2"/><rect x="21.47" y="6.96" width="0.56" height="0.49" fill="#fff" opacity="0.2"/><rect x="23.29" y="9.93" width="0.56" height="0.56" fill="#fff" opacity="0.2"/><rect x="22.68" y="9.93" width="0.56" height="0.56" fill="#fff" opacity="0.2"/><rect x="22.08" y="9.93" width="0.56" height="0.56" fill="#fff" opacity="0.2"/><rect x="21.47" y="9.93" width="0.56" height="0.56" fill="#fff" opacity="0.2"/><rect x="21.47" y="10.54" width="0.56" height="0.49" fill="#fff" opacity="0.2"/><rect x="24.51" y="9.93" width="0.59" height="0.56" fill="#fff" opacity="0.2"/><rect x="20.83" y="8.72" width="0.59" height="0.56" fill="#fff" opacity="0.2"/><rect x="20.83" y="9.32" width="0.59" height="0.56" fill="#fff" opacity="0.2"/><rect x="22.68" y="10.54" width="0.56" height="0.49" fill="#fff" opacity="0.2"/><rect x="20.83" y="9.93" width="0.59" height="0.56" fill="#fff" opacity="0.2"/><rect x="22.08" y="10.54" width="0.56" height="0.49" fill="#fff" opacity="0.2"/><path d="M21.42,7.45V7H21a.22.22,0,0,0-.21.21v.28Z" fill="#fff" opacity="0.2"/><path d="M21.42,10.54h-.59v.28A.21.21,0,0,0,21,11h.39Z" fill="#fff" opacity="0.2"/><path d="M24.51,7.45h.59V7.17A.22.22,0,0,0,24.89,7H24.5Z" fill="#fff" opacity="0.2"/><rect x="23.29" y="10.54" width="0.56" height="0.49" fill="#fff" opacity="0.2"/><rect x="23.9" y="10.54" width="0.56" height="0.49" fill="#fff" opacity="0.2"/><rect x="22.68" y="7.5" width="0.56" height="0.56" fill="#fff" opacity="0.2"/><rect x="21.47" y="7.5" width="0.56" height="0.56" fill="#fff" opacity="0.2"/><rect x="24.51" y="8.11" width="0.59" height="0.56" fill="#fff" opacity="0.2"/><rect x="22.08" y="7.5" width="0.56" height="0.56" fill="#fff" opacity="0.2"/><rect x="23.29" y="8.11" width="0.56" height="0.56" fill="#fff" opacity="0.2"/><rect x="23.9" y="8.11" width="0.56" height="0.56" fill="#fff" opacity="0.2"/><rect x="20.83" y="8.11" width="0.59" height="0.56" fill="#fff" opacity="0.2"/><rect x="20.83" y="7.5" width="0.59" height="0.56" fill="#fff" opacity="0.2"/><rect x="24.51" y="7.5" width="0.59" height="0.56" fill="#fff" opacity="0.2"/><rect x="22.68" y="8.11" width="0.56" height="0.56" fill="#fff" opacity="0.2"/><rect x="23.29" y="7.5" width="0.56" height="0.56" fill="#fff" opacity="0.2"/><rect x="23.9" y="7.5" width="0.56" height="0.56" fill="#fff" opacity="0.2"/><path d="M23,9.7A2,2,0,0,1,21.66,9a0,0,0,0,1,0-.06A2,2,0,0,1,23,8.26a1.92,1.92,0,0,1,1.3.69,0,0,0,0,1,0,.06A1.92,1.92,0,0,1,23,9.7ZM21.76,9A1.86,1.86,0,0,0,23,9.6,1.83,1.83,0,0,0,24.16,9,1.83,1.83,0,0,0,23,8.35,1.86,1.86,0,0,0,21.76,9Z" fill="#fff"/><path d="M23,9.37a.49.49,0,1,1,.49-.49h0a.5.5,0,0,1-.14.35.48.48,0,0,1-.35.14Zm0-.88a.4.4,0,0,0,0,.79h0a.41.41,0,0,0,.4-.4h0A.4.4,0,0,0,23,8.49Z" fill="#fff"/><path d="M23.16,8.88A.19.19,0,0,1,23,8.69.16.16,0,0,1,23,8.55a.21.21,0,0,1,.13-.05h0a.19.19,0,0,1,.19.19.21.21,0,0,1-.19.19Zm0-.29h0a.1.1,0,0,0-.1.1h0a.09.09,0,0,0,.1.09.11.11,0,0,0,.09-.09A.1.1,0,0,0,23.16,8.59Z" fill="#fff"/><path d="M23,8.35a0,0,0,0,1,0,0V7.85a0,0,0,0,1,0,0,0,0,0,0,1,.05,0v.46A0,0,0,0,1,23,8.35Z" fill="#fff"/><path d="M23.36,8.39h0a0,0,0,0,1,0-.06L23.47,8a.06.06,0,0,1,.07,0,0,0,0,0,1,0,.06l-.16.37S23.38,8.39,23.36,8.39Z" fill="#fff"/><path d="M23.73,8.55h0s0,0,0-.07l.22-.26a0,0,0,0,1,.07,0,.06.06,0,0,1,0,.07l-.23.27Z" fill="#fff"/><path d="M24,8.76l0,0a0,0,0,0,1,0-.07l.22-.14a0,0,0,0,1,.06,0,0,0,0,0,1,0,.07l-.22.14Z" fill="#fff"/><path d="M22.57,8.39s0,0,0,0L22.37,8s0,0,0-.06a0,0,0,0,1,.06,0l.16.37s0,0,0,.06Z" fill="#fff"/><path d="M22.19,8.55h0l-.23-.27a0,0,0,0,1,0-.07,0,0,0,0,1,.06,0l.23.26a0,0,0,0,1,0,.07S22.2,8.55,22.19,8.55Z" fill="#fff"/><path d="M21.89,8.76h0l-.21-.14a.05.05,0,0,1,0-.07,0,0,0,0,1,.07,0l.22.14a0,0,0,0,1,0,.07Z" fill="#fff"/><path d="M16.44,13.05a.11.11,0,0,0-.1.06H13.79a.23.23,0,0,0-.23.23V16a.13.13,0,0,1-.13.14h-1v.09h1a.23.23,0,0,0,.23-.23V13.34a.13.13,0,0,1,.13-.13h2.55a.11.11,0,0,0,.15,0,.1.1,0,0,0,.05-.14.1.1,0,0,0-.1-.07Z" fill="#31c9c9"/><path d="M16.44,13.05a.11.11,0,0,0-.1.06H13.79a.23.23,0,0,0-.23.23V16a.13.13,0,0,1-.13.14h-1v.09h1a.23.23,0,0,0,.23-.23V13.34a.13.13,0,0,1,.13-.13h2.55a.11.11,0,0,0,.15,0,.1.1,0,0,0,.05-.14.1.1,0,0,0-.1-.07Z" fill="#fff" opacity="0.4"/><rect x="8.24" y="13.96" width="4.16" height="4.37" rx="0.26" fill="#31c9c9"/><rect x="8.24" y="13.96" width="4.16" height="4.37" rx="0.26" fill="#fff" opacity="0.4"/><rect x="10.04" y="16.47" width="0.56" height="0.56" fill="#fff" opacity="0.2"/><rect x="10.65" y="14.65" width="0.56" height="0.56" fill="#fff" opacity="0.2"/><rect x="9.43" y="17.08" width="0.56" height="0.56" fill="#fff" opacity="0.2"/><rect x="10.65" y="15.26" width="0.56" height="0.56" fill="#fff" opacity="0.2"/><rect x="10.65" y="15.86" width="0.56" height="0.56" fill="#fff" opacity="0.2"/><rect x="10.04" y="15.26" width="0.56" height="0.56" fill="#fff" opacity="0.2"/><rect x="10.04" y="14.01" width="0.56" height="0.59" fill="#fff" opacity="0.2"/><rect x="9.43" y="16.47" width="0.56" height="0.56" fill="#fff" opacity="0.2"/><rect x="10.04" y="14.65" width="0.56" height="0.56" fill="#fff" opacity="0.2"/><rect x="10.04" y="17.08" width="0.56" height="0.56" fill="#fff" opacity="0.2"/><rect x="10.65" y="17.08" width="0.56" height="0.56" fill="#fff" opacity="0.2"/><rect x="10.04" y="15.86" width="0.56" height="0.56" fill="#fff" opacity="0.2"/><rect x="10.65" y="14.01" width="0.56" height="0.59" fill="#fff" opacity="0.2"/><rect x="8.29" y="16.47" width="0.49" height="0.56" fill="#fff" opacity="0.2"/><rect x="8.29" y="14.65" width="0.49" height="0.56" fill="#fff" opacity="0.2"/><rect x="8.29" y="15.86" width="0.49" height="0.56" fill="#fff" opacity="0.2"/><rect x="8.29" y="15.26" width="0.49" height="0.56" fill="#fff" opacity="0.2"/><rect x="10.65" y="16.47" width="0.56" height="0.56" fill="#fff" opacity="0.2"/><path d="M11.86,14.6h.49v-.38a.21.21,0,0,0-.21-.21h-.28Z" fill="#fff" opacity="0.2"/><rect x="11.26" y="14.65" width="0.56" height="0.56" fill="#fff" opacity="0.2"/><rect x="8.29" y="17.08" width="0.49" height="0.56" fill="#fff" opacity="0.2"/><rect x="11.26" y="15.26" width="0.56" height="0.56" fill="#fff" opacity="0.2"/><rect x="11.26" y="15.86" width="0.56" height="0.56" fill="#fff" opacity="0.2"/><rect x="11.26" y="16.47" width="0.56" height="0.56" fill="#fff" opacity="0.2"/><rect x="11.26" y="17.08" width="0.56" height="0.56" fill="#fff" opacity="0.2"/><rect x="11.86" y="17.08" width="0.49" height="0.56" fill="#fff" opacity="0.2"/><rect x="11.26" y="14.01" width="0.56" height="0.59" fill="#fff" opacity="0.2"/><rect x="10.04" y="17.69" width="0.56" height="0.59" fill="#fff" opacity="0.2"/><rect x="10.65" y="17.69" width="0.56" height="0.59" fill="#fff" opacity="0.2"/><rect x="11.86" y="15.86" width="0.49" height="0.56" fill="#fff" opacity="0.2"/><rect x="11.26" y="17.69" width="0.56" height="0.59" fill="#fff" opacity="0.2"/><rect x="11.86" y="16.47" width="0.49" height="0.56" fill="#fff" opacity="0.2"/><path d="M8.78,17.69H8.29v.38a.21.21,0,0,0,.21.21h.28Z" fill="#fff" opacity="0.2"/><path d="M11.86,17.69v.59h.28a.21.21,0,0,0,.21-.21v-.38Z" fill="#fff" opacity="0.2"/><path d="M8.78,14.6V14H8.5a.21.21,0,0,0-.21.21v.38Z" fill="#fff" opacity="0.2"/><rect x="11.86" y="15.26" width="0.49" height="0.56" fill="#fff" opacity="0.2"/><rect x="11.86" y="14.65" width="0.49" height="0.56" fill="#fff" opacity="0.2"/><rect x="8.82" y="15.86" width="0.56" height="0.56" fill="#fff" opacity="0.2"/><rect x="8.82" y="17.08" width="0.56" height="0.56" fill="#fff" opacity="0.2"/><rect x="9.43" y="14.01" width="0.56" height="0.59" fill="#fff" opacity="0.2"/><rect x="8.82" y="16.47" width="0.56" height="0.56" fill="#fff" opacity="0.2"/><rect x="9.43" y="15.26" width="0.56" height="0.56" fill="#fff" opacity="0.2"/><rect x="9.43" y="14.65" width="0.56" height="0.56" fill="#fff" opacity="0.2"/><rect x="9.43" y="17.69" width="0.56" height="0.59" fill="#fff" opacity="0.2"/><rect x="8.82" y="17.69" width="0.56" height="0.59" fill="#fff" opacity="0.2"/><rect x="8.82" y="14.01" width="0.56" height="0.59" fill="#fff" opacity="0.2"/><rect x="9.43" y="15.86" width="0.56" height="0.56" fill="#fff" opacity="0.2"/><rect x="8.82" y="15.26" width="0.56" height="0.56" fill="#fff" opacity="0.2"/><rect x="8.82" y="14.65" width="0.56" height="0.56" fill="#fff" opacity="0.2"/><path d="M10.32,17.6a1,1,0,0,1-1-1v-.87a1,1,0,1,1,2,0h0v.87A1,1,0,0,1,10.32,17.6Zm0-2.81a.92.92,0,0,0-.92.92v.87a.92.92,0,1,0,1.84,0v-.87A.92.92,0,0,0,10.32,14.79Z" fill="#fff"/><ellipse cx="10.78" cy="15.88" rx="0.11" ry="0.15" fill="#fff"/><path d="M10,15.88a.11.11,0,1,1-.22,0c0-.08.05-.15.11-.15S10,15.8,10,15.88Z" fill="#fff"/><polygon points="10.32 16.02 10.12 16.54 10.32 16.54 10.32 16.02" fill="#fff"/><path d="M10.28,16.9a.63.63,0,0,1-.27,0l.05-.08,0,0,0,0a1,1,0,0,0,.53,0l0,.09A1.84,1.84,0,0,1,10.28,16.9Z" fill="#fff"/><rect x="27.25" y="7.58" width="11.44" height="11.44" rx="0.49" fill="#31c9c9"/><rect x="28.49" y="14.64" width="8.98" height="2.37" rx="0.44" fill="#fff" opacity="0.5"/><path d="M30.09,15.82l.26.15-.11.19L30,16v.28h-.23V16l-.27.16-.1-.19.26-.15-.26-.14.11-.2.27.16v-.29H30v.29l.26-.16.12.2Z" fill="#fff"/><path d="M31.65,15.82l.26.15-.12.19L31.53,16v.28H31.3V16l-.26.16-.12-.2.26-.14-.26-.15.12-.19.26.16v-.3h.23v.3l.26-.16.12.19Z" fill="#fff"/><path d="M33.2,15.82l.27.15-.12.19L33.08,16v.28h-.23V16l-.26.16-.12-.2.26-.14-.26-.15.12-.19.26.16v-.3h.23v.3l.27-.16.12.19Z" fill="#fff"/><path d="M34.76,15.82,35,16l-.11.19L34.64,16v.28h-.23V16l-.26.16L34,16l.26-.14L34,15.67l.12-.19.26.16v-.3h.23v.3l.27-.16.11.19Z" fill="#fff"/><path d="M36.32,15.82l.26.15-.12.19L36.2,16v.28H36V16l-.27.16L35.6,16l.26-.15-.26-.14.11-.2.27.16v-.29h.22v.29l.26-.16.12.2Z" fill="#fff"/><circle cx="32.98" cy="11.13" r="2.57" fill="#fff" opacity="0.5"/><path d="M34,11H32a.28.28,0,0,0-.28.28h0v1.22a.29.29,0,0,0,.28.28h2a.28.28,0,0,0,.28-.28V11.26A.28.28,0,0,0,34,11Zm-.81,1.36H32.8l.07-.5a.24.24,0,0,1-.11-.32.26.26,0,0,1,.33-.12.25.25,0,0,1,.11.33.2.2,0,0,1-.11.11Z" fill="#31c9c9"/><path d="M32.4,10.79l0-.2a.62.62,0,0,1,1.21-.24l0,.19.35-.07,0-.19a1,1,0,0,0-1.93.34v0l0,.19Z" fill="#31c9c9"/><path d="M34.41,17.86H31.55a.12.12,0,0,1-.13-.12h0a.13.13,0,0,1,.13-.13h2.86a.12.12,0,0,1,.12.13h0a.12.12,0,0,1-.12.12Z" opacity="0.2"/><path d="M24.93,17.81l1-.84a5.91,5.91,0,0,1,1-.9,1,1,0,0,1,.66.18c.1.13-.66.95-.84,1.1a.89.89,0,0,1-.53.13l-.94.9Z" fill="#ebb376"/><path d="M17.35,40.11h-1a.07.07,0,0,0-.07.06l-.15.69a.11.11,0,0,0,.08.14h0l.92,0,1.28,0c.33,0,.37-.32.24-.35a3.2,3.2,0,0,1-1.25-.49A.21.21,0,0,0,17.35,40.11Z" fill="#263238"/><path d="M21.38,40.09h-.95a.07.07,0,0,0-.07,0l-.15.7a.1.1,0,0,0,.08.13h0l.92,0,1.28,0c.33,0,.37-.33.24-.36a2.92,2.92,0,0,1-1.25-.49A.2.2,0,0,0,21.38,40.09Z" fill="#263238"/><path d="M16.84,22.5H21c.4,2.15,1.53,10.88.64,17.67l-1.38.15s.21-10.44-1-13.78c-.14,1.79-.31,3.69-.46,4.7-.36,2.49-1.17,9-1.17,9l-1.41,0s.31-6.29.44-8.74C16.77,28.86,16.84,23,16.84,22.5Z" fill="#263238"/><path d="M16.84,22.5H21c.4,2.15,1.53,10.88.64,17.67l-1.38.15s.21-10.44-1-13.78c-.14,1.79-.31,3.69-.46,4.7-.36,2.49-1.17,9-1.17,9l-1.41,0s.31-6.29.44-8.74C16.77,28.86,16.84,23,16.84,22.5Z" fill="#fff" opacity="0.2"/><path d="M19.22,26.54a11.35,11.35,0,0,1,.47,1.8,11.35,11.35,0,0,0-.35-3.27Z" opacity="0.2"/><path d="M20.62,15.31c.65.08,1.94,3.06,2.44,3.33s2.45-1.41,2.45-1.41l.49.61S23.78,20.22,22.9,20s-2.11-2.5-2.48-3.21A1.42,1.42,0,0,1,20.62,15.31Z" fill="#31c9c9"/><path d="M26,17.84S23.78,20.21,22.9,20a3.12,3.12,0,0,1-1.24-1.18,19.2,19.2,0,0,1-1.24-2,1.19,1.19,0,0,1,0-1,1.5,1.5,0,0,1,.22-.39c.65.08,1.94,3.06,2.44,3.32s2.45-1.4,2.45-1.4Z" fill="#fff" opacity="0.5"/><path d="M21.65,18.76a18.75,18.75,0,0,1-1.23-2,1.15,1.15,0,0,1,0-1A5.77,5.77,0,0,1,21.65,18.76Z" opacity="0.2"/><path d="M20.62,15.31a19.33,19.33,0,0,0-4.61.37s.73,5.72.7,8.21l4.71-.26A51.14,51.14,0,0,0,20.62,15.31Z" fill="#31c9c9"/><path d="M16.71,23.89a46,46,0,0,0-.3-4.67h0c-.06-.63-.13-1.23-.19-1.75-.12-1-.22-1.78-.22-1.78a19,19,0,0,1,4.61-.38,50.35,50.35,0,0,1,.81,8.32Z" fill="#fff" opacity="0.6"/><path d="M16.41,19.22c-.06-.63-.13-1.23-.19-1.75l.3-.24A3.59,3.59,0,0,1,16.41,19.22Z" opacity="0.2"/><path d="M17.55,15.49c.38.34,1.31.21,1.31.21s.57-.15.46-.34a.63.63,0,0,1-.58-.42,1,1,0,0,1,0-.39l0-.21-1.15-.85C17.74,14.05,17.92,15.08,17.55,15.49Z" fill="#ebb376"/><path d="M17.85,14a1,1,0,0,0,.89.91.85.85,0,0,1,0-.39Z" opacity="0.2"/><path d="M19.53,11.7s.32,1-.18,1.53-.8-1.48-.8-1.48Z" fill="#263238"/><path d="M17.84,14.32a1,1,0,0,0,1.16.2,1.08,1.08,0,0,0,.54-.59l0-.11c.18-.69.1-1.83-.65-2.16a1.07,1.07,0,0,0-1.39.55,1.13,1.13,0,0,0-.08.48C17.48,13.46,17.46,13.92,17.84,14.32Z" fill="#ebb376"/><path d="M18.61,12.93c0,.06,0,.12.07.12s.08-.05.08-.11,0-.12-.07-.12S18.61,12.87,18.61,12.93Z" fill="#263238"/><path d="M19.32,12.94c0,.07,0,.12.07.12s.08-.05.08-.11,0-.12-.07-.12S19.32,12.89,19.32,12.94Z" fill="#263238"/><path d="M19.1,13a2.13,2.13,0,0,0,.28.54.35.35,0,0,1-.3.05Z" fill="#d58745"/><path d="M18.4,12.7l0,0a.33.33,0,0,1,.24-.12s0,0,0,0,0,0,0,0h0a.36.36,0,0,0-.3.15s0,0,0,0h0Z" fill="#263238"/><path d="M19.63,12.71h0a0,0,0,0,0,0-.05h0a.35.35,0,0,0-.26-.21s0,0,0,0h0s0,0,0,0h0a.27.27,0,0,1,.2.17Z" fill="#263238"/><path d="M18,11.74l0,.34a.26.26,0,0,0-.12.32.92.92,0,0,1-.24.91s0-.12-.12-.09-.05.68.16,1a2.17,2.17,0,0,1-.56-1,2,2,0,0,1,0-1.33Z" fill="#263238"/><path d="M19.14,13.75a2.29,2.29,0,0,0-.08.28h0a.4.4,0,0,1-.37-.18.31.31,0,0,1,0-.13.19.19,0,0,1,0-.08,1.14,1.14,0,0,0,.44.11Z" fill="#263238"/><path d="M19.06,13.75l0,.08a.67.67,0,0,1-.43-.12.25.25,0,0,1,0-.08A1.16,1.16,0,0,0,19.06,13.75Z" fill="#fff"/><path d="M19,14a.42.42,0,0,1-.37-.17.71.71,0,0,1,.25.06A.22.22,0,0,1,19,14Z" fill="#de5753"/><path d="M18.54,12a.19.19,0,0,1,.22-.06,1.12,1.12,0,0,1,.47.42c.17.21.5.21.58.09s-.08-.3-.08-.3a.83.83,0,0,0-.71-1,1.58,1.58,0,0,0-1.31.2s-.72,0-.77.69a2.7,2.7,0,0,0,0,.8s-.2.24.16.22.91-.23.93-.63S18.54,12,18.54,12Z" fill="#263238"/><path d="M17.1,13.32a.76.76,0,0,0,.41.38c.24.08.38-.13.33-.37s-.23-.52-.48-.5A.33.33,0,0,0,17.1,13.32Z" fill="#ebb376"/><path d="M16,15.68c-.69.21-1.65,4.89-1.53,5.5S17,24.34,17,24.34l.67-.51s-2-2.9-2.08-3.51a14.45,14.45,0,0,1,.91-2.86,6.21,6.21,0,0,0-.13-1.14A1.33,1.33,0,0,0,16,15.68Z" fill="#31c9c9"/><path d="M16,15.68c-.69.21-1.65,4.89-1.53,5.5S17,24.34,17,24.34l.67-.51s-2-2.9-2.08-3.51a14.45,14.45,0,0,1,.91-2.86,6.21,6.21,0,0,0-.13-1.14A1.33,1.33,0,0,0,16,15.68Z" fill="#fff" opacity="0.5"/></svg>