<svg viewBox="0 0 48 48"><defs><radialGradient id="a" cx="-913.2059" cy="598.4076" r="0.1646" gradientTransform="matrix(0, 24.7306, 28.53, 0, -17050.7742, 22624.4319)" gradientUnits="userSpaceOnUse"><stop offset="0" stop-color="#20c6b7"/><stop offset="1" stop-color="#4d9abf"/></radialGradient></defs><path d="M13.79,48h-.36a1.71,1.71,0,0,1,.07-3.41c.1,0,.57-.4,1.08-1.71a1.71,1.71,0,0,1,1.91-1.06,1.62,1.62,0,0,1,.85.44,7.8408,7.8408,0,0,0,3.21,1.67h0a1.73,1.73,0,0,1,1.25,1.7,1.71,1.71,0,0,1-1.36,1.62A33.4193,33.4193,0,0,1,13.79,48Z" fill="#350f70"/><path d="M20.23,45.08a9.15,9.15,0,0,1-3.7-1.95.51.51,0,0,0-.26-.14.52.52,0,0,0-.57.31c-.8,2.05-1.64,2.48-2.2,2.48a.51.51,0,0,0,0,1h.31a32.5885,32.5885,0,0,0,6.41-.74.5.5,0,0,0,0-1Z" fill="#c26e62"/><path d="M33.89,48a33.4847,33.4847,0,0,1-6.65-.76,1.71,1.71,0,0,1-.11-3.32,7.8384,7.8384,0,0,0,3.21-1.67,1.66,1.66,0,0,1,.85-.44,1.71,1.71,0,0,1,1.91,1.06c.51,1.29,1,1.68,1.1,1.71a1.71,1.71,0,0,1,0,3.42Z" fill="#350f70"/><path d="M34.19,45.78c-.56,0-1.4-.43-2.21-2.48a.5.5,0,0,0-.82-.17,9.13,9.13,0,0,1-3.71,1.95.52.52,0,0,0-.37.5.5.5,0,0,0,.41.48,32.5036,32.5036,0,0,0,6.4.74h.32a.52.52,0,0,0,.49-.52A.51.51,0,0,0,34.19,45.78Z" fill="#c26e62"/><path d="M7.06,42.83H7a1.71,1.71,0,0,1-1.14-.52,5.1,5.1,0,0,1-1.51-4.09c.34-4.31,5.73-8.39,6.34-8.84a1.71,1.71,0,0,1,2.26.21,4.5493,4.5493,0,0,0,1.25.92h.05a1.7,1.7,0,0,1,.7658,2.2789L15,32.82a1.79,1.79,0,0,1-.59.66,11.4,11.4,0,0,0-2.73,6.83A1.7,1.7,0,0,1,10,41.92H9.66a2.31,2.31,0,0,0-1.44.45,1.71,1.71,0,0,1-1.05.44Z" fill="#350f70"/><path d="M13.67,31.6h0a5.81,5.81,0,0,1-1.62-1.19.5.5,0,0,0-.67-.06c-.22.16-5.55,4.13-5.86,8A3.93,3.93,0,0,0,6.7,41.48a.53.53,0,0,0,.34.15h0a.5.5,0,0,0,.31-.14,3.53,3.53,0,0,1,2.19-.76H10a.51.51,0,0,0,.51-.48,12.5,12.5,0,0,1,3.17-7.72.47.47,0,0,0,.26-.24.5.5,0,0,0-.2251-.67A.4846.4846,0,0,0,13.67,31.6Z" fill="#e7896e"/><path d="M10.45,38.62a1.71,1.71,0,0,1-.65-.13l-.27-.1A2.39,2.39,0,0,0,8,38.25a1.72,1.72,0,0,1-1.14,0l-.17-.07a1.7,1.7,0,0,1-.86-.91A5.12,5.12,0,0,1,6,32.92c2-3.85,8.51-5.54,9.25-5.73a1.71,1.71,0,0,1,2,1.06,4.839,4.839,0,0,0,.82,1.36h0A1.71,1.71,0,0,1,17.93,32a1.85,1.85,0,0,1-.8.38A11.36,11.36,0,0,0,12,37.66,1.69,1.69,0,0,1,10.45,38.62Z" fill="#350f70"/><path d="M17.2,30.39h0a5.5,5.5,0,0,1-1-1.72.5.5,0,0,0-.59-.31c-.28.07-6.72,1.68-8.48,5.11A3.88,3.88,0,0,0,7,36.83a.49.49,0,0,0,.25.28h0a.5605.5605,0,0,0,.34,0,3.54,3.54,0,0,1,2.31.13l.34.13a.5.5,0,0,0,.65-.24,12.51,12.51,0,0,1,5.89-5.91.52.52,0,0,0,.34-.12A.51.51,0,0,0,17.2,30.39Z" fill="#ffd267"/><path d="M40.94,42.83h-.1a1.73,1.73,0,0,1-1.05-.45,2.37,2.37,0,0,0-1.45-.45H38a1.7,1.7,0,0,1-1.69-1.61,11.4,11.4,0,0,0-2.73-6.83,1.79,1.79,0,0,1-.59-.66,1.71,1.71,0,0,1,.76-2.29h0a4.36,4.36,0,0,0,1.24-.92,1.71,1.71,0,0,1,2.26-.21c.61.45,6,4.54,6.34,8.84a5.1,5.1,0,0,1-1.51,4.09,1.71,1.71,0,0,1-1.14.52Z" fill="#350f70"/><path d="M34.33,31.6h0A5.8106,5.8106,0,0,0,36,30.41a.5.5,0,0,1,.67-.06c.22.16,5.55,4.13,5.86,8a3.93,3.93,0,0,1-1.18,3.16.53.53,0,0,1-.34.15h-.05a.5.5,0,0,1-.31-.14,3.53,3.53,0,0,0-2.19-.76H38.1a.51.51,0,0,1-.51-.48,12.5,12.5,0,0,0-3.17-7.72.47.47,0,0,1-.26-.24.5.5,0,0,1,.13-.6951C34.3027,31.616,34.3162,31.6077,34.33,31.6Z" fill="#e7896e"/><path d="M37.55,38.62a1.69,1.69,0,0,1-1.54-1,11.36,11.36,0,0,0-5.14-5.26,1.85,1.85,0,0,1-.8-.38,1.71,1.71,0,0,1-.21-2.37h0a4.65,4.65,0,0,0,.83-1.36,1.71,1.71,0,0,1,2-1.06c.74.19,7.28,1.89,9.25,5.73a5.12,5.12,0,0,1,.18,4.36,1.7,1.7,0,0,1-.86.91l-.16.07a1.74,1.74,0,0,1-1.15,0,2.39,2.39,0,0,0-1.51.14l-.28.1A1.629,1.629,0,0,1,37.55,38.62Z" fill="#350f70"/><path d="M30.8,30.39h0a5.5,5.5,0,0,0,1-1.72.5.5,0,0,1,.59-.31c.28.07,6.72,1.68,8.48,5.11A3.88,3.88,0,0,1,41,36.83a.49.49,0,0,1-.25.28H40.7a.5605.5605,0,0,1-.34,0,3.54,3.54,0,0,0-2.31.13l-.34.13a.5.5,0,0,1-.65-.24,12.51,12.51,0,0,0-5.89-5.91.52.52,0,0,1-.34-.12A.51.51,0,0,1,30.8,30.39Z" fill="#ffd267"/><path d="M23.84,47.77a13,13,0,0,1-8.82-3,1.72,1.72,0,0,1-.44-1.88,13.791,13.791,0,0,0,.7-2.49,2.32,2.32,0,0,0-.17-1.79,1.87,1.87,0,0,0-1.32-.5,1.7,1.7,0,0,1-1.5993-1.795q.003-.0526.0093-.105a14.52,14.52,0,0,1,4.52-9,1.7,1.7,0,0,1,2-.19,10.08,10.08,0,0,0,5.12,1.11A10.08,10.08,0,0,0,29,27a1.72,1.72,0,0,1,2,.19,14.52,14.52,0,0,1,4.52,9,1.74,1.74,0,0,1-.39,1.3,1.68,1.68,0,0,1-1.2.61,1.85,1.85,0,0,0-1.32.5,2.36,2.36,0,0,0-.18,1.79,15.6626,15.6626,0,0,0,.7,2.49,1.7,1.7,0,0,1-.44,1.88A13,13,0,0,1,23.84,47.77Z" fill="#350f70"/><path d="M34.29,36.33a13.24,13.24,0,0,0-4.12-8.26.51.51,0,0,0-.6-.06,11.2093,11.2093,0,0,1-5.73,1.28A11.23,11.23,0,0,1,18.11,28a.5.5,0,0,0-.59.06,13.3,13.3,0,0,0-4.13,8.26.47.47,0,0,0,.11.38.52.52,0,0,0,.36.19,2.86,2.86,0,0,1,2.2,1,3.5,3.5,0,0,1,.4,2.76,15.0955,15.0955,0,0,1-.76,2.69.51.51,0,0,0,.13.56,11.79,11.79,0,0,0,8,2.71,11.77,11.77,0,0,0,8-2.71.49.49,0,0,0,.17-.6,17.01,17.01,0,0,1-.76-2.69,3.51,3.51,0,0,1,.41-2.76,2.84,2.84,0,0,1,2.19-1,.52.52,0,0,0,.36-.19A.47.47,0,0,0,34.29,36.33Z" fill="#ffd267"/><path d="M31.44,41.57a12.11,12.11,0,0,1-7.6,2.35,12.1006,12.1006,0,0,1-7.59-2.35,15.5468,15.5468,0,0,1-.55,1.73.51.51,0,0,0,.13.56,11.79,11.79,0,0,0,8,2.71,11.77,11.77,0,0,0,8-2.71A.49.49,0,0,0,32,43.3,13.5817,13.5817,0,0,1,31.44,41.57Z" fill="#e7a960"/><rect x="23.52" y="37.33" width="1.05" height="9.52" fill="#350f70"/><path d="M24,39.28c-4.14,0-7.38-1.39-7.38-3.17a.31.31,0,0,1,.61,0c0,1.24,2.72,2.57,6.77,2.57s6.77-1.33,6.77-2.57a.3.3,0,1,1,.6,0h0C31.34,37.89,28.1,39.28,24,39.28Z" fill="#350f70"/><rect x="21.8632" y="38.2581" width="4.2036" height="4.2036" rx="0.8432" transform="translate(-21.5196 28.767) rotate(-45)" fill="#350f70"/><path d="M24.8794,39.7363l-.0015-.0006-.0025-.0014-.0026-.0046,0-.0053.0821-.5024.3851.3855-.4005.17-.0035.0006h-.0016l-.0021-.0018A.1851.1851,0,0,0,24.8794,39.7363Zm.5585-.0306.4117.4121c.0856.0857.1284.1284.144.1779l.0057.0222-.984-.417L25.0138,39.9c-.004-.0016-.0086-.0034-.0086-.0075s.0047-.0059.0086-.0075l.0013-.0006Zm.5446.7445a.7731.7731,0,0,1-.1327.1517l-.4643.4645-.6-.1252-.0031-.0006c-.0054-.0009-.011-.0018-.011-.0066a.1815.1815,0,0,0-.07-.1268l-.001-.01,0-.0015.1129-.6938,0-.0023c.0007-.0053.0016-.0115.0064-.0115a.1831.1831,0,0,0,.1232-.0707l.0029-.0028.0109.0014,1.0251.434Zm-.7037.723-.7634.764.1307-.8037,0-.0011.0006-.0031.0065-.0047.0013-.0005a.1954.1954,0,0,0,.0738-.055.0164.0164,0,0,1,.01-.0063h.0031l.5375.11Zm-.9249.9257-.0861.0861-.9512-1.3759-.0011-.0015-.0028-.0064.0024-.0044.001-.0014.008-.0131.0021-.0037,0,0,.0055-.0064.0077,0,1.0539.2175.0081.0035.002.0046a.1872.1872,0,0,0,.1092.1249l0,.0083-.0016.0048C24.4983,41.2162,24.3845,41.9112,24.3539,42.0989Zm-.18.18a.3984.3984,0,0,1-.1431.11.2121.2121,0,0,1-.1281,0c-.0495-.0157-.0923-.0584-.1778-.1441l-.9553-.9561.25-.3873.0043-.005h.01a.2583.2583,0,0,0,.174-.0088l.008,0,.003.0034.9559,1.3883Zm-1.4964-1.0828-.2191-.2194.4327-.1847.0035-.0008.0077.0069.0138.02.0014.0017-.0009.0053-.239.3714Zm-.3161-.3164-.2773-.2775c-.0471-.0472-.0813-.0814-.1051-.1109l.843.175.0032.0005c.0052.0009.0109.0018.0109.0067s-.0063.0078-.0116.01l-.0024.0011Zm-.4309-.531a.2147.2147,0,0,1,.01-.0527c.0157-.0495.0584-.0922.144-.1779l.3548-.3551q.2451.356.4914.7109l.0028.0113a.2976.2976,0,0,0-.042.0561l-.0053.0066-.0044,0h0l-.9506-.2Zm.6034-.6808.4768-.4774c.045.02.2082.0887.3541.15.1105.0468.2112.0893.2428.1031l.0075.0058v.0064a.2126.2126,0,0,0,.0555.1943c.0032.0032,0,.0078-.0027.0117l-.0015.0022-.4844.7509-.0046.0053-.0091,0a.2445.2445,0,0,0-.0577-.0078.32.32,0,0,0-.0555.0067h0l-.0057-.0006-.0048-.0054-.5107-.7456Zm.5734-.5738.6176-.6181c.0855-.0856.1283-.1284.1778-.1441a.2137.2137,0,0,1,.1281,0c.05.0157.0923.0585.1779.1441l.1338.134-.4392.6808-.0044.0051H23.89a.2226.2226,0,0,0-.204.0393l-.0107,0C23.6175,39.31,23.1714,39.1209,23.1075,39.0938Zm1.3285-.3908.4055.4059-.0977.6057v.0016l-.0008.0041-.0053.0032a.1924.1924,0,0,0-.0582.029l-.0022.0018-.0042.0027-.0046-.0008-.618-.2628-.0012-.0005c-.0039-.0016-.0086-.0035-.0086-.0076a.2345.2345,0,0,0-.0329-.0973c-.003-.0048-.0063-.01-.0037-.0149Zm-.4177.9149.5794.2456.008.0061v.0061a.1444.1444,0,0,0-.0032.028V39.92c0,.0041-.0041.0058-.0079.0074l-.0012,0c-.0918.0392-1.2885.55-1.29.55l-.0055-.0018c-.0032-.0032,0-.0076.0028-.0117l.0015-.0021.4761-.7378.0009-.0013c.0027-.0044.0059-.0094.011-.0094l.0048.0007a.22.22,0,0,0,.03.0029.2151.2151,0,0,0,.18-.0954l.0036-.0042Zm-.6635.9765,1.3045-.5568.0037.0018.019.0164.0029.0018.0055.006,0,.0026-.1118.687,0,.0027c-.0007.0054-.0015.0114-.0065.0114a.1839.1839,0,0,0-.1458.09l-.0006.0008-.0053.0061-.0074,0-1.04-.2148Z" fill="url(#a)"/><path d="M34.19,48c-1.41,0-3.95-.91-5.14-7A5.48,5.48,0,0,1,30,36.39a5.18,5.18,0,0,1,4.23-1.72,5.18,5.18,0,0,1,4.23,1.72h0A5.48,5.48,0,0,1,39.33,41C38.14,47.09,35.6,48,34.19,48Z" fill="#350f70"/><path d="M37.49,37.16a4,4,0,0,0-3.3-1.29,4.06,4.06,0,0,0-3.31,1.29,4.29,4.29,0,0,0-.65,3.65c.35,1.8,1.44,6,4,6s3.61-4.19,4-6A4.29,4.29,0,0,0,37.49,37.16Z" fill="#e7896e"/><path d="M34.19,38.13c-1.78,0-2.23,1.24-2,2.64s.89,3.39,2,3.39,1.71-2,2-3.39S36,38.13,34.19,38.13Z" fill="#f8cfc5"/><path d="M13.5,48c-1.41,0-4-.91-5.14-7a5.48,5.48,0,0,1,.9-4.65,5.22,5.22,0,0,1,4.24-1.72,5.2,5.2,0,0,1,4.23,1.72h0a5.44,5.44,0,0,1,.9,4.65C17.45,47.09,14.91,48,13.5,48Z" fill="#350f70"/><path d="M16.8,37.16a4,4,0,0,0-3.3-1.29,4,4,0,0,0-3.31,1.29,4.29,4.29,0,0,0-.65,3.65c.35,1.8,1.44,6,4,6s3.6-4.19,3.95-6A4.29,4.29,0,0,0,16.8,37.16Z" fill="#e7896e"/><path d="M13.5,38.13c1.77,0,2.23,1.24,2,2.64s-.88,3.39-2,3.39-1.72-2-2-3.39S11.72,38.13,13.5,38.13Z" fill="#f8cfc5"/><circle cx="22.26" cy="45.52" r="0.63" fill="#350f70"/><circle cx="12.67" cy="17.02" r="6.42" fill="#350f70"/><path d="M12.67,22.24a5.21,5.21,0,1,0-.02,0Z" fill="#e7896e"/><path d="M35.15,23.44A6.42,6.42,0,1,1,41.57,17a6.42,6.42,0,0,1-6.42,6.44Z" fill="#350f70"/><path d="M35.15,22.24a5.21,5.21,0,1,1,.02,0Z" fill="#e7896e"/><path d="M23.84,36.73a23.9,23.9,0,0,1-12.38-3.18C8,31.39,6,28.45,6,25.28S8,19.17,11.46,17a23.9,23.9,0,0,1,12.38-3.18A23.9306,23.9306,0,0,1,36.23,17c3.5,2.16,5.43,5.1,5.43,8.27s-1.93,6.11-5.43,8.27A23.93,23.93,0,0,1,23.84,36.73Z" fill="#350f70"/><path d="M23.6,37A13.17,13.17,0,0,0,37,24.064l0-.004a13.18,13.18,0,0,0-13.4-12.9,13.18,13.18,0,0,0-13.45,12.9A13.2185,13.2185,0,0,0,23.6,37Z" fill="#d06f52"/><path d="M23.6,38.15A14.3488,14.3488,0,0,1,9,24.06,14.3239,14.3239,0,0,1,23.6,10,14.3857,14.3857,0,0,1,38.24,24.1C38.24,31.88,31.67,38.15,23.6,38.15Z" fill="#350f70"/><path d="M23.6,35.22C31,35.22,37,29.84,37,23.19s-6-12-13.44-12-13.45,5.39-13.45,12S16.17,35.22,23.6,35.22Z" fill="#e7896e"/><path d="M19.78,14.57c-5.32,0-9.63.57-9.63,1.27,0,.34,1.08.66,2.82.89a54.9909,54.9909,0,0,0,6.81.37h6c5.32,0,9.63-.57,9.63-1.26,0-.35-1.08-.67-2.82-.9a57.01,57.01,0,0,0-6.81-.37Z" fill="#d06f52"/><path d="M22.24,22.75a4.345,4.345,0,1,0,0,8.69H25a4.35,4.35,0,0,0,.417-8.69q-.2084-.01-.417,0Z" fill="#f8cfc5"/><path d="M20.74,23c1.27.34,1.69,1.08,2.86,1.08s1.58-.74,2.85-1.08a3,3,0,0,0-2.85-1.33A3,3,0,0,0,20.74,23Z" fill="#350f70"/><path d="M7.43,25a1.263,1.263,0,0,1-.33-.05,1.19,1.19,0,0,1-.82-1.47l0,0c.38-1.41,1-3.23,1.66-5a33.1543,33.1543,0,0,0,1.77-5.83,1.6608,1.6608,0,0,1,0-.32C10.16,5.82,16.34.76,23.84.76S37.53,5.82,38,12.29a1.7276,1.7276,0,0,1,0,.32,33.1063,33.1063,0,0,0,1.78,5.82c.63,1.77,1.28,3.59,1.66,5a1.2012,1.2012,0,1,1-2.31.66c-1.4-4.63-7.82-8-15.26-8S10,19.46,8.58,24.09A1.2,1.2,0,0,1,7.43,25Z" fill="#350f70"/><path d="M7.43,23.75c.37-1.37,1-3.15,1.64-4.91.93-2.61,1.84-5.16,1.84-6.23a.9022.9022,0,0,1,0-.18C11.27,6.6,16.92,2,23.84,2S36.42,6.6,36.76,12.43a1.002,1.002,0,0,1,0,.18c0,1.07.92,3.62,1.85,6.23.62,1.75,1.26,3.54,1.63,4.9-1.53-5-8.3-8.85-16.41-8.85S9,18.7,7.43,23.75Z" fill="#e54f4f"/><path d="M16.56,13.39V3.48A3.48,3.48,0,0,1,20,0h7.61a3.48,3.48,0,0,1,3.48,3.48v9.91L29.63,13a23.92,23.92,0,0,0-11.57,0Z" fill="#350f70"/><path d="M23.84,11.09a24.7807,24.7807,0,0,1,6.09.75V3.48A2.29,2.29,0,0,0,27.65,1.2H20a2.29,2.29,0,0,0-2.28,2.28v8.36A24.7021,24.7021,0,0,1,23.84,11.09Z" fill="#ff5f50"/><path d="M23.84,9.35c1.26,0,2.28-1.36,2.28-3s-1-3-2.28-3-2.28,1.36-2.28,3S22.58,9.35,23.84,9.35Z" fill="#ffd267"/><path d="M18.61,22.93a1,1,0,0,1-1-1,.48.48,0,0,0-.48-.48.47.47,0,0,0-.48.46c0,.0067,0,.0135,0,.02a1,1,0,0,1-2,0,2.44,2.44,0,1,1,4.87,0A1,1,0,0,1,18.61,22.93Z" fill="#d06f52"/><path d="M18.61,22.4a.76.76,0,0,1-.76-.75.7.7,0,0,0-.69-.71l-.01,0a.71.71,0,0,0-.71.71.75.75,0,0,1-1.5,0,2.21,2.21,0,0,1,4.42,0A.76.76,0,0,1,18.61,22.4Z" fill="#350f70"/><path d="M31.69,22.93a1,1,0,0,1-1-1,.47.47,0,0,0-.46-.48h-.02a.48.48,0,0,0-.48.48,1,1,0,0,1-2,0,2.44,2.44,0,0,1,4.88,0A1,1,0,0,1,31.69,22.93Z" fill="#d06f52"/><path d="M31.69,22.4a.75.75,0,0,1-.75-.75.71.71,0,1,0-1.42,0,.75.75,0,0,1-1.5,0,2.21,2.21,0,0,1,4.42,0h0a.75.75,0,0,1-.75.75Z" fill="#350f70"/><path d="M25.58,24.06a.46.46,0,0,0-.46.46.53.53,0,0,1-1.06,0c0-.26-.21-1.92-.46-1.92s-.47,1.66-.47,1.92a.53.53,0,0,1-1.06.001V24.52a.47.47,0,0,0-.93,0,1.46,1.46,0,0,0,2.46,1.06,1.42,1.42,0,0,0,1,.4,1.47,1.47,0,0,0,1.46-1.46.46.46,0,0,0-.46-.46C25.5936,24.06,25.5868,24.06,25.58,24.06Z" fill="#350f70"/></svg>